<svg xmlns="http://www.w3.org/2000/svg" viewBox="0 0 24 24">
  <!-- Background SVG -->
  <path d="M20 22H4C3.44772 22 3 21.5523 3 21V3C3 2.44772 3.44772 2 4 2H20C20.5523 2 21 2.44772 21 3V21C21 21.5523 20.5523 22 20 22ZM7 6V10H11V6H7ZM7 12V14H17V12H7ZM7 16V18H17V16H7ZM13 7V9H17V7H13Z" style="fill:rgba(255,255,255,1);"></path>
  <!-- Foreground SVG -->
  <path d="M20 22H4C3.44772 22 3 21.5523 3 21V3C3 2.44772 3.44772 2 4 2H20C20.5523 2 21 2.44772 21 3V21C21 21.5523 20.5523 22 20 22ZM19 20V4H5V20H19ZM7 6H11V10H7V6ZM7 12H17V14H7V12ZM7 16H17V18H7V16ZM13 7H17V9H13V7Z" style="fill:rgba(54,24,97,1);"></path>
</svg>
