<svg xmlns="http://www.w3.org/2000/svg" viewBox="0 0 24 24">
  <!-- Background SVG -->
  <path d="M16 2L21 7V21.0082C21 21.556 20.5551 22 20.0066 22H3.9934C3.44476 22 3 21.5447 3 21.0082V2.9918C3 2.44405 3.44495 2 3.9934 2H16ZM11 7V17H13V7H11ZM15 11V17H17V11H15ZM7 13V17H9V13H7Z" style="fill:rgba(255,255,255,1);"></path>
  <!-- Foreground SVG -->
  <path d="M11 7H13V17H11V7ZM15 11H17V17H15V11ZM7 13H9V17H7V13ZM15 4H5V20H19V8H15V4ZM3 2.9918C3 2.44405 3.44749 2 3.9985 2H16L20.9997 7L21 20.9925C21 21.5489 20.5551 22 20.0066 22H3.9934C3.44476 22 3 21.5447 3 21.0082V2.9918Z" style="fill:rgba(54,24,97,1);"></path>
</svg>
