<svg xmlns="http://www.w3.org/2000/svg" viewBox="0 0 24.5 24.5">
  <!-- Background SVG -->
  <path d="M8 1V3H16V1H18V3H21.0082C21.556 3 22 3.44495 22 3.9934V20.0066C22 20.5552 21.5447 21 21.0082 21H2.9918C2.44405 21 2 20.5551 2 20.0066V3.9934C2 3.44476 2.45531 3 2.9918 3H6V1H8ZM12 8L8 12H11V16H13V12H16L12 8Z" style="fill:rgba(255,255,255,1);"></path>
  <!-- Foreground SVG -->
  <polygon points="8 12 11 12 11 16 13 16 13 12 16 12 12 8 8 12" style="fill:#361861;"></polygon>
  <path d="M21,3h-3V1h-2v2h-8V1h-2v2h-3c-.5,0-1,.4-1,1v16c0,.5.4,1,1,1h18c.5,0,1-.4,1-1V4c0-.5-.4-1-1-1ZM20,19H4V5h16v14Z" style="fill:#361861;"></path>
</svg>
