<?xml version="1.0" encoding="utf-8"?>
<svg viewBox="0 0 100 80" xmlns="http://www.w3.org/2000/svg">
  <g transform="matrix(0.9483360648155212, 0, 0, 0.9483360648155212, 2.226701021194444, 1.7709599733352661)" style="">
    <path d="M50,30c-8.285,0-15,6.718-15,15c0,8.285,6.715,15,15,15c8.283,0,15-6.715,15-15C65,36.718,58.283,30,50,30z M90,15H78   c-1.65,0-3.428-1.28-3.949-2.846l-3.102-9.309C70.426,1.28,68.65,0,67,0H33c-1.65,0-3.428,1.28-3.949,2.846l-3.102,9.309   C25.426,13.72,23.65,15,22,15H10C4.5,15,0,19.5,0,25v45c0,5.5,4.5,10,10,10h80c5.5,0,10-4.5,10-10V25C100,19.5,95.5,15,90,15z    M50,70c-13.807,0-25-11.193-25-25c0-13.806,11.193-25,25-25c13.805,0,25,11.194,25,25C75,58.807,63.805,70,50,70z M86.5,31.993   c-1.932,0-3.5-1.566-3.5-3.5c0-1.932,1.568-3.5,3.5-3.5c1.934,0,3.5,1.568,3.5,3.5C90,30.427,88.433,31.993,86.5,31.993z" style="fill: rgb(255, 255, 255); stroke: rgb(65, 34, 114); stroke-width: 5px;"/>
  </g>
  <path style="fill: rgb(65, 34, 114); stroke: rgb(65, 34, 114);" d="M 50.538 29.491 L 55.682 30.565 L 61.18 34.642 L 63.555 40.994 L 63.934 47.081 L 61.782 51.65 L 57.51 57.388 C 57.51 57.388 49.821 59.045 49.79 59.045 C 49.759 59.045 41.186 56.177 41.155 56.177 C 41.124 56.177 36.537 50.686 36.537 50.686 L 35.662 44.975 L 37.229 36.762 L 43.982 31.509 C 43.997 31.844 50.538 29.491 50.538 29.491 Z M 44.721 20.908 L 34.695 25.587 C 34.695 25.587 27.754 33.811 27.785 33.811 C 27.816 33.811 25.547 45.987 25.547 45.987 C 25.547 45.987 28.152 53.819 28.152 53.85 C 28.152 53.882 31.02 59.495 31.053 59.527 C 31.085 59.56 39.278 66.154 39.278 66.154 C 39.278 66.154 47.864 68.095 47.864 68.127 C 47.864 68.16 55.637 67.582 55.637 67.582 L 64.625 63.436 L 72.168 52.498 L 73.314 41.74 L 70.644 33.213 L 66.361 27.001 L 59.134 22.228 L 50.648 20.397 L 44.721 20.908 Z" transform="matrix(1, 0, 0, 1, -1.4210854715202004e-14, 0)"/>
  <path style="stroke: rgb(65, 34, 114); fill: rgb(65, 34, 114);" d="M 82.985 25.795 C 82.985 25.795 80.885 27.637 80.885 27.643 C 80.885 27.649 81.734 30.374 81.734 30.379 C 81.734 30.385 83.425 31.911 83.447 31.911 C 83.47 31.911 85.995 31.227 85.995 31.227 L 87.253 29.596 L 87.253 27.478 C 87.253 27.478 85.897 25.855 85.89 25.847 C 85.883 25.84 82.831 25.943 82.831 25.943" transform="matrix(1, 0, 0, 1, -1.4210854715202004e-14, 0)"/>
</svg>