<?xml version="1.0" encoding="utf-8"?>
<svg viewBox="0 0 100 80" xmlns="http://www.w3.org/2000/svg">
  <g transform="matrix(1, 0, 0, 1, 0, 7.105427357601002e-15)">
    <path d="M50,30c-8.285,0-15,6.718-15,15c0,8.285,6.715,15,15,15c8.283,0,15-6.715,15-15C65,36.718,58.283,30,50,30z M90,15H78   c-1.65,0-3.428-1.28-3.949-2.846l-3.102-9.309C70.426,1.28,68.65,0,67,0H33c-1.65,0-3.428,1.28-3.949,2.846l-3.102,9.309   C25.426,13.72,23.65,15,22,15H10C4.5,15,0,19.5,0,25v45c0,5.5,4.5,10,10,10h80c5.5,0,10-4.5,10-10V25C100,19.5,95.5,15,90,15z    M50,70c-13.807,0-25-11.193-25-25c0-13.806,11.193-25,25-25c13.805,0,25,11.194,25,25C75,58.807,63.805,70,50,70z M86.5,31.993   c-1.932,0-3.5-1.566-3.5-3.5c0-1.932,1.568-3.5,3.5-3.5c1.934,0,3.5,1.568,3.5,3.5C90,30.427,88.433,31.993,86.5,31.993z" style="fill: rgb(255, 255, 255); stroke: rgb(65, 34, 114); stroke-width: 3px;"/>
  </g>
  <path style="fill: rgb(65, 34, 114); stroke: rgb(65, 34, 114);" d="M 50.943 29.23 L 56.367 30.363 L 62.165 34.662 L 64.669 41.36 L 65.069 47.779 L 62.8 52.597 L 58.295 58.647 C 58.295 58.647 50.187 60.395 50.154 60.395 C 50.121 60.395 41.082 57.37 41.049 57.37 C 41.016 57.37 36.179 51.579 36.179 51.579 L 35.257 45.557 L 36.908 36.898 L 44.03 31.359 C 44.045 31.711 50.943 29.23 50.943 29.23 Z M 44.809 20.18 L 34.237 25.113 C 34.237 25.113 26.918 33.786 26.951 33.786 C 26.984 33.786 24.591 46.625 24.591 46.625 C 24.591 46.625 27.337 54.884 27.337 54.917 C 27.337 54.95 30.362 60.869 30.396 60.903 C 30.43 60.937 39.069 67.891 39.069 67.891 C 39.069 67.891 48.123 69.937 48.123 69.971 C 48.123 70.005 56.32 69.396 56.32 69.396 L 65.798 65.025 L 73.751 53.491 L 74.96 42.148 L 72.144 33.156 L 67.628 26.605 L 60.008 21.572 L 51.059 19.641 Z" transform="matrix(1, 0, 0, 1, 0, 7.105427357601002e-15)"/>
  <path style="stroke: rgb(65, 34, 114); fill: rgb(65, 34, 114);" d="M 85.158 25.333 C 85.158 25.333 82.943 27.276 82.943 27.282 C 82.943 27.288 83.839 30.161 83.839 30.167 C 83.839 30.173 85.622 31.781 85.645 31.781 C 85.668 31.781 88.332 31.062 88.332 31.062 L 89.657 29.341 L 89.657 27.108 C 89.657 27.108 88.228 25.395 88.221 25.388 C 88.214 25.381 84.994 25.49 84.994 25.49" transform="matrix(1, 0, 0, 1, 0, 7.105427357601002e-15)"/>
</svg>