<?xml version="1.0" encoding="utf-8"?>
<svg viewBox="0 0 90 90" xmlns="http://www.w3.org/2000/svg">
  <path d="M 16.741 78.101 C 16.741 83.303 20.959 87.52 26.162 87.52 C 31.365 87.52 35.58 83.303 35.58 78.101 C 35.58 72.898 31.365 68.682 26.162 68.682 C 20.959 68.682 16.741 72.898 16.741 78.101 Z M 63.838 78.101 C 63.838 83.303 68.055 87.52 73.258 87.52 C 78.461 87.52 82.676 83.303 82.676 78.101 C 82.676 72.898 78.461 68.682 73.258 68.682 C 68.055 68.682 63.838 72.898 63.838 78.101 Z M 33.448 55.835 L 85.576 40.942 C 86.572 40.656 87.387 39.577 87.387 38.54 L 87.387 12.638 L 20.982 12.638 L 20.982 4.631 C 20.982 3.595 20.135 2.747 19.098 2.747 L 4.498 2.747 C 3.461 2.747 2.614 3.595 2.614 4.631 L 2.614 12.166 L 11.767 12.166 L 21.035 54.82 L 21.923 59.262 L 21.923 66.327 C 21.923 67.363 22.77 68.211 23.807 68.211 L 26.162 68.211 L 73.258 68.211 L 85.503 68.211 C 86.54 68.211 87.387 67.363 87.387 66.327 L 87.387 59.262 L 34.414 59.262 C 29 59.262 28.89 57.14 33.448 55.835 Z" style="fill: rgb(255, 255, 255); stroke: rgb(65, 34, 114); stroke-width: 5px;"/>
</svg>