<?xml version="1.0" encoding="utf-8"?>
<svg viewBox="0 0.0003 77.9988 77.9997" xmlns="http://www.w3.org/2000/svg">
  <g transform="matrix(1, 0, 0, 1, 1.4210854715202004e-14, 0)">
    <path d="M71.807,6.191c-7.215-7.216-12.629-6.133-12.629-6.133l-25.26,25.259L5.049,54.185L0,78l23.812-5.051l28.869-28.869   l25.26-25.257C77.941,18.824,79.025,13.409,71.807,6.191z M22.395,70.086l-8.117,1.748c-0.785-1.467-1.727-2.932-3.455-4.659   c-1.727-1.727-3.193-2.669-4.658-3.456l1.75-8.116l2.346-2.348c0,0,4.418,0.088,9.404,5.078c4.988,4.987,5.078,9.407,5.078,9.407   L22.395,70.086z" style="fill: rgb(255, 255, 255); stroke-width: 3px; stroke: rgb(65, 34, 114);"/>
  </g>
  <path style="stroke: rgb(65, 34, 114); fill: rgb(65, 34, 114);" d="M 10.925 52.97 C 10.925 52.97 7.218 51.045 8.682 50.535 C 9.582 50.221 5.197 54.355 5.197 54.37 C 5.197 54.385 3.582 64.284 3.598 64.284 C 3.614 64.284 7.488 64.976 7.503 64.976 C 7.518 64.976 11.565 68.484 11.565 68.484 L 13.825 74.258 C 13.825 74.258 24.734 72.847 24.734 72.831 C 24.734 72.815 25.923 69.581 25.923 69.581 L 24.935 65.405 L 18.239 55.887 L 10.925 52.97 Z"/>
</svg>