<?xml version="1.0" encoding="utf-8"?>
<svg viewBox="0 0.0003 77.9988 77.9997" xmlns="http://www.w3.org/2000/svg">
  <g transform="matrix(0.9101660847663879, 0, 0, 0.9101660847663879, 3.6877150535583496, 3.199281930923462)" style="">
    <path d="M71.807,6.191c-7.215-7.216-12.629-6.133-12.629-6.133l-25.26,25.259L5.049,54.185L0,78l23.812-5.051l28.869-28.869   l25.26-25.257C77.941,18.824,79.025,13.409,71.807,6.191z M22.395,70.086l-8.117,1.748c-0.785-1.467-1.727-2.932-3.455-4.659   c-1.727-1.727-3.193-2.669-4.658-3.456l1.75-8.116l2.346-2.348c0,0,4.418,0.088,9.404,5.078c4.988,4.987,5.078,9.407,5.078,9.407   L22.395,70.086z" style="fill: rgb(255, 255, 255); stroke: rgb(65, 34, 114); stroke-width: 5px;"/>
  </g>
  <path style="stroke: rgb(65, 34, 114); fill: rgb(65, 34, 114);" d="M 13.631 51.412 C 13.631 51.412 10.256 49.66 11.589 49.195 C 12.409 48.909 8.417 52.672 8.417 52.686 C 8.417 52.699 6.947 61.709 6.962 61.709 C 6.976 61.709 10.503 62.339 10.516 62.339 C 10.53 62.339 14.213 65.532 14.213 65.532 L 16.271 70.787 C 16.271 70.787 26.199 69.503 26.199 69.489 C 26.199 69.473 27.281 66.53 27.281 66.53 L 26.382 62.729 L 20.288 54.066 L 13.631 51.412 Z"/>
</svg>